# xmcd
#
# Track frame offsets: 
#        150
#        13084
#        26655
#        44977
#        56977
#        67260
#        81695
#        93507
#        108237
#        128835
#        139857
#        155630
#        171782
#        182982
#        198550
#        210282
#
# Disc length: 2990 seconds
#
# Revision: 0
# Processed by: cddbd v1.5.2PL0 Copyright (c) Steve Scherf et al.
# Submitted via: ExactAudioCopy v0.95a4
#
DISCID=f90bac10
DTITLE=Various Artist - Country Behind The Dikes
DYEAR=1900
DGENRE=
TTITLE0=Ben Steneker - Country Pride
TTITLE1=Jany Szabo - Trouble's Here
TTITLE2=Captain Gumbo - Chicken Gumbo
TTITLE3=West Virginian Railroad - Now I Know
TTITLE4=Borderline - El Puento Roto
TTITLE5=Sandra Vanreys - The French Song
TTITLE6=Major Dundee Band - Adieu Cherie
TTITLE7=Grant and Forsyth - Queen of hearts
TTITLE8=Desperado - Fast Moving Train
TTITLE9=Lafayette  - Laisez Faire
TTITLE10=Henk Wijngaard - Hey Suzie
TTITLE11=Busted - It Takes Two To Tango
TTITLE12=Major Dundee - Goin' Loco
TTITLE13=Ruud Hermans - Can You Help Me Out Of This Dream
TTITLE14=Moonlight Riders - Looking At Him
TTITLE15=Ben Steneker and Ruud Hermans - The Hand Taht Rocks The Cradle
EXTD=
EXTT0=
EXTT1=
EXTT2=
EXTT3=
EXTT4=
EXTT5=
EXTT6=
EXTT7=
EXTT8=
EXTT9=
EXTT10=
EXTT11=
EXTT12=
EXTT13=
EXTT14=
EXTT15=
PLAYORDER=
